<?xml version="1.0" encoding="iso-8859-1"?>
<!-- Generator: Adobe Illustrator 19.0.0, SVG Export Plug-In . SVG Version: 6.00 Build 0)  -->
<svg xmlns="http://www.w3.org/2000/svg" xmlns:xlink="http://www.w3.org/1999/xlink" version="1.1" id="Capa_1" x="0px" y="0px" viewBox="0 0 60 60" style="enable-background:new 0 0 60 60;" xml:space="preserve" width="512px" height="512px">
<g>
	<g>
		<path d="M59,0H1C0.4,0,0,0.4,0,1v58c0,0.6,0.4,1,1,1h58c0.6,0,1-0.4,1-1V1C60,0.4,59.6,0,59,0z M58,2v6H2V2H58z M2,21V10h56v11H2z     M2,23h14v35H2V23z M18,58V23h40v35H18z" fill="#d1c6ad"/>
		<rect x="4" y="4" width="4" height="2" fill="#d1c6ad"/>
		<rect x="10" y="4" width="4" height="2" fill="#d1c6ad"/>
		<path d="M54,26H22c-0.6,0-1,0.4-1,1v12c0,0.6,0.4,1,1,1h32c0.6,0,1-0.4,1-1V27C55,26.4,54.6,26,54,26z M53,38H23V28h30V38z" fill="#d1c6ad"/>
		<rect x="21" y="43" width="2" height="2" fill="#d1c6ad"/>
		<rect x="25" y="43" width="2" height="2" fill="#d1c6ad"/>
		<rect x="53" y="43" width="2" height="2" fill="#d1c6ad"/>
		<rect x="29" y="43" width="8" height="2" fill="#d1c6ad"/>
		<rect x="21" y="48" width="34" height="2" fill="#d1c6ad"/>
		<rect x="21" y="53" width="34" height="2" fill="#d1c6ad"/>
		<rect x="4" y="26" width="10" height="2" fill="#d1c6ad"/>
		<rect x="4" y="30" width="2" height="2" fill="#d1c6ad"/>
		<rect x="8" y="30" width="2" height="2" fill="#d1c6ad"/>
		<rect x="12" y="30" width="2" height="2" fill="#d1c6ad"/>
		<rect x="4" y="34" width="2" height="2" fill="#d1c6ad"/>
		<rect x="8" y="34" width="2" height="2" fill="#d1c6ad"/>
		<rect x="12" y="34" width="2" height="2" fill="#d1c6ad"/>
		<rect x="4" y="38" width="2" height="2" fill="#d1c6ad"/>
		<rect x="8" y="38" width="2" height="2" fill="#d1c6ad"/>
		<rect x="12" y="38" width="2" height="2" fill="#d1c6ad"/>
		<path d="M13,42H5c-0.6,0-1,0.4-1,1v6c0,0.6,0.4,1,1,1h8c0.6,0,1-0.4,1-1v-6C14,42.4,13.6,42,13,42z M12,48H6v-4h6V48z" fill="#d1c6ad"/>
		<rect x="4" y="53" width="10" height="2" fill="#d1c6ad"/>
		<rect x="5" y="12" width="12" height="2" fill="#d1c6ad"/>
		<rect x="5" y="16" width="8" height="2" fill="#d1c6ad"/>
		<rect x="53" y="14" width="2" height="2" fill="#d1c6ad"/>
		<rect x="49" y="14" width="2" height="2" fill="#d1c6ad"/>
	</g>
</g>
<g>
</g>
<g>
</g>
<g>
</g>
<g>
</g>
<g>
</g>
<g>
</g>
<g>
</g>
<g>
</g>
<g>
</g>
<g>
</g>
<g>
</g>
<g>
</g>
<g>
</g>
<g>
</g>
<g>
</g>
</svg>
