<?xml version="1.0" encoding="iso-8859-1"?>
<!-- Generator: Adobe Illustrator 19.0.0, SVG Export Plug-In . SVG Version: 6.00 Build 0)  -->
<svg xmlns="http://www.w3.org/2000/svg" xmlns:xlink="http://www.w3.org/1999/xlink" version="1.1" id="Layer_1" x="0px" y="0px" viewBox="0 0 512 512" style="enable-background:new 0 0 512 512;" xml:space="preserve" width="512px" height="512px">
<g>
	<g>
		<path d="M501.551,112.306H354.22V70.552c0-14.404-11.719-26.122-26.122-26.122H183.902c-14.404,0-26.122,11.719-26.122,26.122    v41.753H10.449C4.678,112.305,0,116.983,0,122.754v313.469c0,17.285,14.062,31.347,31.347,31.347h449.306    c17.285,0,31.347-14.062,31.347-31.347V122.754C512,116.984,507.322,112.306,501.551,112.306z M491.102,133.204v97.024    c0,2.503-1.785,4.66-4.241,5.131l-180.706,34.624v-13.481c0-5.771-4.678-10.449-10.449-10.449V133.204H491.102z M226.743,272.176    v-5.224h58.514v5.224H226.743z M274.808,293.104v37.585h-37.616v-37.53L274.808,293.104z M237.192,246.053V133.204h37.616v112.849    H237.192z M207.893,112.306V94.543h96.215v17.763H207.893z M178.678,70.552c0-2.881,2.344-5.224,5.224-5.224h144.196    c2.881,0,5.224,2.344,5.224,5.224v41.753h-8.316V84.093c0-5.771-4.678-10.449-10.449-10.449H197.443    c-5.771,0-10.449,4.678-10.449,10.449v28.212h-8.316V70.552z M20.898,133.204h195.396v112.849    c-5.771,0-10.449,4.678-10.449,10.449v13.592L25.136,235.366c-2.456-0.472-4.238-2.63-4.238-5.13V133.204z M491.104,436.225    c-0.002,5.762-4.69,10.449-10.451,10.449H31.347c-5.762,0-10.449-4.687-10.449-10.449V255.819c0.099,0.02,0.194,0.051,0.295,0.07    l193.13,37.115c0.65,0.125,1.31,0.188,1.972,0.188v47.948c0,5.771,4.678,10.449,10.449,10.449h58.514    c5.771,0,10.449-4.678,10.449-10.449v-48.065h0.016c0.338,0,0.675-0.019,1.01-0.052c0.161-0.016,0.318-0.045,0.476-0.068    c0.155-0.022,0.31-0.037,0.465-0.067l0.11-0.021c0.016-0.003,0.032-0.006,0.048-0.009l192.964-36.973    c0.104-0.02,0.204-0.052,0.308-0.073V436.225z" fill="#2a324b"/>
	</g>
</g>
<g>
	<g>
		<path d="M256.075,398.617h-0.137c-5.771,0-10.449,4.678-10.449,10.449s4.678,10.449,10.449,10.449h0.137    c5.771,0,10.449-4.678,10.449-10.449S261.846,398.617,256.075,398.617z" fill="#2a324b"/>
	</g>
</g>
<g>
	<g>
		<path d="M404.385,398.6l-114.506,0.001c-5.771,0-10.449,4.678-10.449,10.449s4.678,10.449,10.449,10.449l114.506-0.001    c5.771,0,10.449-4.678,10.449-10.449S410.156,398.6,404.385,398.6z" fill="#2a324b"/>
	</g>
</g>
<g>
	<g>
		<path d="M222.121,398.616l-145.844-0.007c-5.762,0-10.449-4.687-10.449-10.449v-62.346c0-5.771-4.678-10.449-10.449-10.449    c-5.771,0-10.449,4.678-10.449,10.449v62.346c0,17.285,14.062,31.347,31.347,31.347l145.844,0.007    c5.77,0,10.448-4.678,10.449-10.449C232.57,403.295,227.892,398.616,222.121,398.616z" fill="#2a324b"/>
	</g>
</g>
<g>
</g>
<g>
</g>
<g>
</g>
<g>
</g>
<g>
</g>
<g>
</g>
<g>
</g>
<g>
</g>
<g>
</g>
<g>
</g>
<g>
</g>
<g>
</g>
<g>
</g>
<g>
</g>
<g>
</g>
</svg>
